<svg xmlns="http://www.w3.org/2000/svg" width="1398" height="264.236" viewBox="0 0 1398 264.236">
  <g id="logo1" transform="translate(-1.425 279.836)">
    <path id="Path_1" data-name="Path 1" d="M123.574-278.9A143.227,143.227,0,0,0,3.314-165.3C.8-152.9.8-124,3.314-111.5c1.914,9.1,7.655,27.9,8.461,27.2.2-.3-.1-3.5-.806-7.3-1.914-11.4-1.41-34.2,1.108-46.7,11.079-55.7,53.785-99,109.785-111.2,11.381-2.5,39.482-3.1,50.864-1.1,22.058,3.8,45.425,13.6,61.943,26,10.676,7.9,24.979,22.7,31.928,32.7,5.741,8.3,13.3,22.6,16.417,31.1l2.014,5.3-.5-5.5c-1.612-15-10.072-37.9-19.439-52.4-22.763-35.2-59.224-59-99.915-65.1C154.9-280.1,133.041-280.3,123.574-278.9Z" transform="translate(0)" fill="#0082d2"/>
    <path id="Path_2" data-name="Path 2" d="M144.947-231.7c-3.022,16.1-13.194,40.9-23.971,58.6-16.216,26.5-43.008,53.5-71.31,72-5.54,3.6-9.568,6.6-9.065,6.8,4.029,1.2,105.555,24.3,105.857,24,.1-.2.2-38.1.1-84.3C146.256-226.2,146.055-237.5,144.947-231.7Z" transform="translate(0.282)" fill="#114e9b"/>
    <path id="Path_3" data-name="Path 3" d="M368.3-149.2c-7.453,42.7-13.7,78.5-14,79.4-.4,1.7.806,1.8,14.5,1.8h14.907l8.561-49.5c4.734-27.2,8.863-49.5,9.166-49.5s7.856,22.3,16.921,49.5L434.675-68h26.892l7.856-23.2c13.6-40.7,25.784-75.9,26.288-75.5.2.3,3.928,21.5,8.36,47.3s8.259,47.9,8.561,49.2c.5,2.2.806,2.2,15.108,2.2h14.6l-.5-2.3c-.3-1.2-6.144-35.7-13.094-76.7s-12.792-75.7-13.194-77.3l-.6-2.8-14.705.3-14.6.3-18.23,54.2c-10.072,29.8-18.533,54.4-18.835,54.7s-8.863-24.2-18.935-54.4l-18.331-55H381.7Z" transform="translate(5.653)" fill="#114e9b"/>
    <path id="Path_4" data-name="Path 4" d="M565-147.5V-68h87.627V-97H595.216v-43h57.411v-29H595.216v-29h57.411v-29H565Z" transform="translate(8.646)" fill="#114e9b"/>
    <path id="Path_5" data-name="Path 5" d="M683-147.6V-68h30.216v-34.1c0-31.9.1-34,1.712-33.7,1.209.2,7.856,11.7,19.54,33.8L752.3-68.5l16.72.3,16.82.2L781.4-76.2c-12.187-22.4-32.936-61.9-32.936-62.5,0-.5,2.82-2.1,6.245-3.7,8.662-4,16.921-12.3,19.943-20.1,3.525-8.9,4.029-25.6,1.108-34.3-5.137-14.9-14-23.3-29.108-27.4-6.748-1.8-11.583-2.1-35.655-2.5l-28-.5Zm57.511-47.8a15.248,15.248,0,0,1,7.957,13.6c0,12-5.439,15.8-23.367,16.6l-11.885.5v-33.5l11.885.4C734.67-197.5,737.691-197,740.511-195.4Z" transform="translate(10.521)" fill="#114e9b"/>
    <path id="Path_6" data-name="Path 6" d="M807-147.5V-68h30.216V-227H807Z" transform="translate(12.081)" fill="#114e9b"/>
    <path id="Path_7" data-name="Path 7" d="M871-147.5v79.7l33.54-.5c42.6-.7,49.252-1.9,63.857-12.3,12.086-8.6,20.748-21.5,26.187-39.1,2.417-8.1,2.719-10.2,2.719-25.8-.1-20.1-1.612-27.6-8.964-42-10.274-20.4-25.079-31.9-47.036-36.7-7.856-1.7-14.4-2.1-39.785-2.5L871-227.2Zm57.612-49.1c19.439,3.5,31.727,14.8,36.662,33.7,2.115,7.9,2.317,25.2.5,32.9-2.921,11.8-10.374,22.7-18.835,27.6C941-98.9,929.519-97.1,914.108-97H901.216V-198h9.871A149.947,149.947,0,0,1,928.612-196.6Z" transform="translate(13.557)" fill="#114e9b"/>
    <path id="Path_8" data-name="Path 8" d="M1024-147.5V-68h30.216V-227H1024Z" transform="translate(15.335)" fill="#114e9b"/>
    <path id="Path_9" data-name="Path 9" d="M1110.754-159.8c-14.3,37-28.2,72.8-30.82,79.5L1075.2-68h31.626l6.648-16.8,6.547-16.7h64.965L1191.23-85l6.345,16.5,15.813.3c10.475.2,15.813-.1,15.511-.8-.1-.5-13.9-36.3-30.518-79.5l-30.216-78.4-15.712-.1H1136.74Zm52.475,2,10.173,26.3-10.374.3c-5.741.1-15.209.1-20.95,0l-10.475-.3,10.173-26.3c5.64-14.4,10.475-26.2,10.777-26.2S1157.589-172.2,1163.23-157.8Z" transform="translate(18.236)" fill="#114e9b"/>
    <path id="Path_10" data-name="Path 10" d="M1252-147.5V-68h30.216v-51.5c0-28.3.3-51.5.806-51.5.4,0,15.813,23.2,34.346,51.5L1351.109-68h28.806V-227H1349.7v104.3l-34.043-51.9-34.044-51.9-14.806-.3L1252-227.1Z" transform="translate(19.51)" fill="#114e9b"/>
    <path id="Path_11" data-name="Path 11" d="M156-143.7V-75l5.54-4.4C168.993-85.5,174.432-88.5,184-92a125.69,125.69,0,0,1,28.907-6.2l4.13-.3-28.6-53.5c-15.612-29.4-29.31-55.1-30.418-57C156.1-212.5,156.1-212,156-143.7Z" transform="translate(1.114)" fill="#0082d2"/>
    <path id="Path_12" data-name="Path 12" d="M277.476-64.3c-1.108,3.4-8.158,10-13.6,12.8-24.374,12.2-74.634,10.9-152.289-4-33.641-6.4-58.015-5.1-78.763,4.4-5.54,2.5-18.23,11-17.525,11.7.1.2,2.921-1,6.245-2.6,8.259-4,16.317-6,27.7-6.7,13.4-.8,27.195.9,61.943,7.7,16.619,3.3,34.95,6.6,40.691,7.5,49.655,7.4,100.116-.4,118.749-18.4,4.331-4.2,8.662-11.4,7.957-13.4C278.382-66,277.878-65.5,277.476-64.3Z" transform="translate(0.1)" fill="#114e9b"/>
    <path id="Path_13" data-name="Path 13" d="M36.073-40c-12.489,1.7-13.6,2.8-2.82,2.9,13.4.1,27.8,2.3,51.67,7.7,51.871,11.7,65.67,13.7,91.152,13.8,17.928,0,35.856-1.8,43.813-4.4,3.022-1,3.022-1-.5-.5-1.914.3-11.684.8-21.655,1.1-27.195,1-44.317-1.2-90.145-11.6C70.519-39.4,50.677-41.9,36.073-40Z" transform="translate(0.176)" fill="#0082d2"/>
  </g>
</svg>
